<svg xmlns="http://www.w3.org/2000/svg" xmlns:xlink="http://www.w3.org/1999/xlink" width="2304" zoomAndPan="magnify" viewBox="0 0 1728 1727.999927" height="2304" preserveAspectRatio="xMidYMid meet" version="1.2"><defs><clipPath id="17ed049ac8"><path d="M 174 195 L 1555.050781 195 L 1555.050781 1532 L 174 1532 Z M 174 195 "/></clipPath></defs><g id="ad98e46cf5"><g clip-rule="nonzero" clip-path="url(#17ed049ac8)"><path style=" stroke:none;fill-rule:nonzero;fill:#000000;fill-opacity:1;" d="M 395.46875 1516.59375 C 352.421875 1533.476562 315.203125 1536.289062 283.816406 1525.03125 C 252.414062 1513.777344 226.855469 1493.617188 207.140625 1464.546875 C 202.292969 1457.519531 197.957031 1450.191406 194.132812 1442.558594 C 190.304688 1434.929688 187.027344 1427.070312 184.296875 1418.980469 C 181.566406 1410.890625 179.410156 1402.652344 177.832031 1394.265625 C 176.25 1385.875 175.257812 1377.417969 174.855469 1368.890625 C 174.382812 1360.351562 174.515625 1351.824219 175.253906 1343.300781 C 175.992188 1334.78125 177.332031 1326.355469 179.265625 1318.027344 C 181.199219 1309.695312 183.714844 1301.542969 186.804688 1293.570312 C 189.898438 1285.59375 193.539062 1277.878906 197.726562 1270.421875 C 214.75 1239.476562 243 1215.5625 282.472656 1198.679688 L 1417.832031 742.914062 L 1417.832031 987.683594 L 282.472656 531.910156 C 243 515.03125 214.753906 491.117188 197.726562 460.167969 C 193.511719 452.59375 189.847656 444.761719 186.742188 436.667969 C 183.636719 428.578125 181.117188 420.304688 179.179688 411.859375 C 177.246094 403.410156 175.917969 394.867188 175.191406 386.226562 C 174.46875 377.589844 174.355469 368.945312 174.855469 360.292969 C 175.222656 351.652344 176.1875 343.078125 177.75 334.570312 C 179.316406 326.0625 181.464844 317.703125 184.191406 309.496094 C 186.921875 301.289062 190.210938 293.3125 194.054688 285.5625 C 197.898438 277.8125 202.257812 270.371094 207.140625 263.230469 C 226.855469 234.171875 252.417969 214.011719 283.820312 202.746094 C 315.179688 191.492188 352.398438 194.300781 395.46875 211.175781 L 1388.242188 619.125 C 1499.433594 664.136719 1555.035156 744.785156 1555.050781 861.074219 C 1555.050781 921.121094 1541.597656 971.292969 1514.695312 1011.589844 C 1487.789062 1051.945312 1445.640625 1084.300781 1388.242188 1108.652344 Z M 395.46875 1516.59375 "/></g></g></svg>