<svg xmlns="http://www.w3.org/2000/svg" xmlns:xlink="http://www.w3.org/1999/xlink" width="2304" zoomAndPan="magnify" viewBox="0 0 1728 1727.999927" height="2304" preserveAspectRatio="xMidYMid meet" version="1.2"><defs><clipPath id="5c9cdf9fdf"><path d="M 172.941406 196 L 1554 196 L 1554 1532 L 172.941406 1532 Z M 172.941406 196 "/></clipPath></defs><g id="ce56b8308d"><g clip-rule="nonzero" clip-path="url(#5c9cdf9fdf)"><path style=" stroke:none;fill-rule:nonzero;fill:#000000;fill-opacity:1;" d="M 1332.523438 211.394531 C 1375.566406 194.515625 1412.785156 191.699219 1444.175781 202.957031 C 1475.574219 214.210938 1501.132812 234.371094 1520.847656 263.441406 C 1525.695312 270.46875 1530.03125 277.796875 1533.859375 285.429688 C 1537.683594 293.058594 1540.960938 300.917969 1543.691406 309.007812 C 1546.421875 317.097656 1548.578125 325.335938 1550.160156 333.722656 C 1551.742188 342.113281 1552.734375 350.570312 1553.136719 359.097656 C 1553.609375 367.636719 1553.472656 376.167969 1552.734375 384.6875 C 1551.996094 393.207031 1550.660156 401.632812 1548.726562 409.964844 C 1546.789062 418.292969 1544.277344 426.445312 1541.183594 434.417969 C 1538.09375 442.394531 1534.453125 450.109375 1530.265625 457.566406 C 1513.238281 488.511719 1484.988281 512.425781 1445.515625 529.308594 L 310.15625 985.074219 L 310.15625 740.304688 L 1445.515625 1196.078125 C 1484.988281 1212.957031 1513.238281 1236.871094 1530.265625 1267.820312 C 1534.480469 1275.394531 1538.140625 1283.226562 1541.246094 1291.320312 C 1544.355469 1299.410156 1546.875 1307.683594 1548.808594 1316.132812 C 1550.746094 1324.578125 1552.074219 1333.125 1552.796875 1341.761719 C 1553.523438 1350.398438 1553.636719 1359.042969 1553.136719 1367.695312 C 1552.769531 1376.339844 1551.800781 1384.914062 1550.238281 1393.417969 C 1548.675781 1401.925781 1546.527344 1410.285156 1543.796875 1418.492188 C 1541.066406 1426.699219 1537.78125 1434.675781 1533.9375 1442.425781 C 1530.09375 1450.175781 1525.730469 1457.617188 1520.847656 1464.757812 C 1501.132812 1493.816406 1475.574219 1513.976562 1444.171875 1525.242188 C 1412.808594 1536.496094 1375.59375 1533.6875 1332.523438 1516.8125 L 339.746094 1108.863281 C 228.558594 1063.851562 172.957031 983.203125 172.941406 866.914062 C 172.941406 806.867188 186.394531 756.695312 213.296875 716.398438 C 240.199219 676.042969 282.351562 643.6875 339.746094 619.335938 Z M 1332.523438 211.394531 "/></g></g></svg>