<svg xmlns="http://www.w3.org/2000/svg" xmlns:xlink="http://www.w3.org/1999/xlink" width="500" zoomAndPan="magnify" viewBox="0 0 375 374.999991" height="500" preserveAspectRatio="xMidYMid meet" version="1.2"><defs><clipPath id="db0deb3f3d"><path d="M 90 63.851562 L 240 63.851562 L 240 298 L 90 298 Z M 90 63.851562 "/></clipPath><clipPath id="13114633f3"><path d="M 72 198 L 288.878906 198 L 288.878906 354.101562 L 72 354.101562 Z M 72 198 "/></clipPath><clipPath id="17ce0de745"><path d="M 157 19 L 268 19 L 268 127 L 157 127 Z M 157 19 "/></clipPath><clipPath id="ecf6fa6ffe"><path d="M 192.582031 1.359375 L 283.988281 53.03125 L 233.054688 143.128906 L 141.648438 91.460938 Z M 192.582031 1.359375 "/></clipPath><clipPath id="c1526920dd"><path d="M 179.566406 -6 L 298.394531 61.171875 L 247.460938 151.273438 L 128.632812 84.101562 Z M 179.566406 -6 "/></clipPath><clipPath id="1cd11b09a5"><path d="M 179.566406 -6 L 298.394531 61.171875 L 247.460938 151.273438 L 128.632812 84.101562 Z M 179.566406 -6 "/></clipPath></defs><g id="baa7ca3d42"><rect x="0" width="375" y="0" height="374.999991" style="fill:#ffffff;fill-opacity:1;stroke:none;"/><rect x="0" width="375" y="0" height="374.999991" style="fill:#fff9f9;fill-opacity:1;stroke:none;"/><g clip-rule="nonzero" clip-path="url(#db0deb3f3d)"><path style=" stroke:none;fill-rule:nonzero;fill:#000000;fill-opacity:1;" d="M 230.742188 185.019531 C 227.933594 187.523438 224.90625 189.828125 222.355469 192.585938 C 217.777344 197.53125 216.976562 201.730469 220.414062 207.402344 C 223.621094 212.710938 227.648438 217.550781 231.570312 222.390625 C 237.664062 229.910156 240.917969 238.242188 239.722656 248.019531 C 239.527344 249.621094 239.324219 251.265625 238.761719 252.757812 C 231.632812 271.609375 218.085938 284.074219 198.191406 292.851562 C 201.796875 287.84375 204.632812 284.457031 206.820312 280.695312 C 208.957031 277.011719 210.4375 272.945312 212.980469 267.355469 C 207.84375 269.792969 204.5 271.664062 200.960938 273.007812 C 185.84375 278.765625 171.90625 272.375 165.988281 257.355469 C 162.039062 247.355469 162.046875 237.367188 164.816406 227.113281 C 167.300781 217.921875 170.601562 209.078125 174.820312 200.546875 C 175.738281 198.6875 176.585938 196.785156 176.898438 194.554688 C 167.796875 202.738281 161.21875 212.746094 155.375 223.316406 C 149.3125 234.269531 146.65625 245.976562 148.058594 258.921875 C 140.429688 259.527344 136.785156 254.753906 132.191406 249.117188 C 131.269531 258.464844 132.875 265.433594 139.722656 270.695312 C 133.078125 273.566406 131.59375 273.140625 117.804688 264.667969 C 119.09375 276.066406 122.359375 280.921875 139.9375 297.105469 C 121.921875 291.28125 108.625 281.480469 99.617188 266.042969 C 94.027344 256.476562 90.605469 246.105469 90.976562 235.136719 C 91.433594 221.699219 96.820312 205.132812 110.65625 195.257812 C 105.503906 209.453125 104.367188 222.699219 111.164062 235.421875 C 112.347656 229.546875 113.414062 223.5 114.816406 217.523438 C 117.480469 206.167969 124.09375 196.832031 130.671875 187.511719 C 133.644531 183.296875 136.832031 179.230469 139.703125 174.957031 C 141.359375 172.492188 143.019531 169.882812 143.925781 167.09375 C 145.703125 161.632812 145.0625 156.328125 141.121094 151.8125 C 139.339844 149.769531 137.382812 147.875 135.417969 145.816406 C 147.09375 146.175781 156.988281 156.046875 156.1875 166.550781 C 156.027344 168.652344 155.441406 170.859375 154.527344 172.753906 C 152.046875 177.886719 149.132812 182.8125 146.65625 187.949219 C 144.558594 192.308594 142.5625 196.765625 141.082031 201.363281 C 140.4375 203.363281 141.203125 205.816406 141.417969 209.75 C 145.667969 204.675781 148.929688 201.085938 151.835938 197.230469 C 157.554688 189.640625 163.457031 182.167969 167.265625 173.339844 C 172.773438 160.554688 171.988281 150.75 161.777344 139.730469 C 155.851562 133.339844 149.335938 127.5 143.242188 121.253906 C 140.402344 118.347656 137.820312 115.167969 135.359375 111.933594 C 125.40625 98.84375 128.585938 77.175781 144.585938 65.886719 C 146.65625 64.429688 149.375 63.878906 152.433594 63.84375 C 151.296875 65.15625 150.148438 66.453125 149.023438 67.777344 C 138.277344 80.441406 139.136719 90.605469 149.476562 102.640625 C 153.660156 107.511719 159.148438 111.355469 164.367188 115.226562 C 173.078125 121.691406 182.40625 127.363281 190.832031 134.164062 C 204.511719 145.199219 208.488281 160.191406 206.371094 177.128906 C 205.023438 187.902344 200.09375 197.1875 194.089844 206.03125 C 191.5 209.835938 189.105469 213.800781 186.980469 217.878906 C 183.496094 224.558594 182.855469 231.765625 184.054688 239.125 C 185.605469 248.671875 193.335938 254.902344 203 254.539062 C 209.214844 254.304688 211.332031 251.488281 210.605469 245.105469 C 210.128906 240.902344 208.789062 237.289062 204.097656 234.128906 C 212.269531 236.03125 213.988281 237.859375 215.917969 245.917969 C 219.605469 241.691406 218.84375 237.320312 217.257812 233.136719 C 216.425781 230.929688 214.703125 229.007812 213.175781 227.132812 C 211.808594 225.449219 210.042969 224.082031 208.648438 222.417969 C 203.902344 216.71875 202.589844 209.964844 205.675781 203.492188 C 210.558594 193.25 218.972656 186.75 230.742188 185.019531 Z M 230.742188 185.019531 "/></g><g clip-rule="nonzero" clip-path="url(#13114633f3)"><path style=" stroke:none;fill-rule:nonzero;fill:#000000;fill-opacity:1;" d="M 453.136719 211.375 C 456.089844 217.542969 452.015625 224.773438 445.214844 225.507812 C 431.863281 226.9375 418.984375 228.140625 406.332031 230.527344 C 388.542969 233.886719 371.007812 238.855469 354.140625 245.566406 C 336.257812 252.679688 318.636719 260.441406 300.925781 267.972656 C 293.84375 270.984375 289.769531 276.300781 288.886719 284.035156 C 288.886719 284.054688 288.882812 284.082031 288.882812 284.101562 C 288.707031 285.601562 286.492188 285.535156 286.371094 284.035156 C 286.007812 279.34375 285.53125 273.972656 285 274.417969 C 276.222656 281.675781 266.363281 287.167969 256.179688 292.167969 C 238.539062 300.835938 219.792969 306.144531 200.644531 309.90625 C 186.59375 312.671875 172.382812 314.941406 158.136719 316.238281 C 146.21875 317.320312 134.148438 316.855469 122.140625 316.710938 C 116.195312 316.636719 110.265625 315.6875 104.324219 315.203125 C 102.730469 315.074219 101.117188 315.183594 98.554688 315.183594 C 105.941406 321.46875 114.042969 323.617188 122.285156 324.398438 C 126.007812 324.746094 129.753906 324.8125 133.625 324.78125 C 136.5625 324.753906 136.863281 329.039062 133.953125 329.445312 C 132.613281 329.625 131.269531 329.726562 129.890625 329.753906 C 123.636719 329.847656 117.378906 329.773438 110.25 329.773438 C 111.359375 331.144531 111.8125 332.078125 112.550781 332.570312 C 122.417969 339.132812 133.105469 343.449219 145.035156 344.398438 C 149.898438 344.785156 154.730469 345.667969 159.589844 345.808594 C 181.195312 346.433594 202.28125 342.714844 222.96875 337.011719 C 236.257812 333.347656 249.207031 328.460938 262.3125 324.128906 C 262.320312 324.128906 262.335938 324.121094 262.339844 324.121094 C 263.445312 323.757812 264.125 325.304688 263.113281 325.882812 C 261.703125 326.683594 260.289062 327.476562 258.816406 328.132812 C 240.503906 336.332031 222.027344 344.175781 202.285156 348.300781 C 193.039062 350.230469 183.644531 351.464844 174.273438 352.730469 C 168.644531 353.488281 162.941406 354.058594 157.269531 354.066406 C 142.496094 354.074219 127.917969 351.992188 114.582031 345.492188 C 96.726562 336.796875 82.621094 324.335938 74.316406 306.949219 C 71.449219 300.941406 71.820312 293.792969 75.558594 288.289062 C 78.261719 284.304688 81.902344 281.554688 86.90625 279.457031 L 84.578125 283.589844 C 80.925781 290.070312 83.625 298.363281 90.464844 301.292969 C 90.53125 301.320312 90.597656 301.351562 90.671875 301.378906 C 94.269531 302.898438 100.417969 304.445312 104.304688 304.886719 C 121.347656 306.808594 138.34375 307.265625 155.5625 305.539062 C 171.507812 303.941406 187.367188 302.085938 202.898438 298.371094 C 225.585938 292.9375 247.941406 286.339844 268.011719 273.867188 C 279.910156 266.476562 282.667969 251.535156 266.4375 247.945312 C 259.980469 246.515625 253.53125 245.058594 245.761719 243.316406 C 259.199219 242.179688 270.679688 244.914062 281.785156 249.417969 C 286.210938 251.214844 288.277344 253.832031 292.492188 260.519531 C 297.140625 261.777344 301.429688 259.554688 305.660156 258.109375 C 329.4375 249.96875 351.425781 236.347656 373.828125 225.136719 C 391.039062 216.53125 407.949219 207.203125 426.320312 201.167969 C 430.121094 199.917969 434.199219 199.445312 438.179688 198.839844 C 441.355469 198.363281 444.285156 199.660156 446.339844 201.832031 C 449.121094 204.761719 451.476562 207.914062 453.136719 211.375 Z M 453.136719 211.375 "/></g><g clip-rule="nonzero" clip-path="url(#17ce0de745)"><g clip-rule="nonzero" clip-path="url(#ecf6fa6ffe)"><g clip-rule="nonzero" clip-path="url(#c1526920dd)"><g clip-rule="nonzero" clip-path="url(#1cd11b09a5)"><path style=" stroke:none;fill-rule:nonzero;fill:#000000;fill-opacity:1;" d="M 229.476562 109.605469 C 228.851562 109.53125 228.226562 109.453125 227.605469 109.367188 C 228.128906 108.441406 228.546875 107.707031 228.878906 107.117188 C 248.710938 73.386719 267.558594 59.503906 267.558594 59.503906 C 257.304688 38.011719 220.949219 17.402344 197.15625 19.707031 C 197.15625 19.707031 194.984375 43.015625 176.304688 77.410156 C 175.988281 77.96875 175.589844 78.675781 175.101562 79.535156 C 174.792969 79.152344 174.488281 78.757812 174.171875 78.355469 C 149.742188 46.757812 151.589844 97.070312 188.339844 117.84375 C 224.871094 138.492188 268.433594 114.167969 229.476562 109.605469 Z M 229.476562 109.605469 "/></g></g></g></g></g></svg>