<svg xmlns="http://www.w3.org/2000/svg" xmlns:xlink="http://www.w3.org/1999/xlink" width="500" zoomAndPan="magnify" viewBox="0 0 375 374.999991" height="500" preserveAspectRatio="xMidYMid meet" version="1.2"><defs><clipPath id="1d52f5d103"><path d="M 90 63.851562 L 240 63.851562 L 240 298 L 90 298 Z M 90 63.851562 "/></clipPath><clipPath id="43491a8655"><path d="M 72 198 L 288.878906 198 L 288.878906 354.101562 L 72 354.101562 Z M 72 198 "/></clipPath><clipPath id="9a3450e65a"><path d="M 157 19 L 268 19 L 268 126 L 157 126 Z M 157 19 "/></clipPath><clipPath id="15da21dfcc"><path d="M 192.582031 1.359375 L 283.988281 53.03125 L 233.054688 143.128906 L 141.648438 91.460938 Z M 192.582031 1.359375 "/></clipPath><clipPath id="866f73257e"><path d="M 179.566406 -6 L 298.394531 61.171875 L 247.460938 151.273438 L 128.632812 84.101562 Z M 179.566406 -6 "/></clipPath></defs><g id="35b08d8947"><rect x="0" width="375" y="0" height="374.999991" style="fill:#ffffff;fill-opacity:1;stroke:none;"/><rect x="0" width="375" y="0" height="374.999991" style="fill:#000000;fill-opacity:1;stroke:none;"/><g clip-rule="nonzero" clip-path="url(#1d52f5d103)"><path style=" stroke:none;fill-rule:nonzero;fill:#ffffff;fill-opacity:1;" d="M 230.589844 185 C 227.78125 187.503906 224.753906 189.808594 222.210938 192.5625 C 217.632812 197.507812 216.832031 201.710938 220.265625 207.378906 C 223.472656 212.6875 227.496094 217.527344 231.414062 222.363281 C 237.503906 229.882812 240.753906 238.214844 239.558594 247.992188 C 239.363281 249.589844 239.160156 251.238281 238.597656 252.726562 C 231.476562 271.574219 217.941406 284.039062 198.066406 292.816406 C 201.667969 287.808594 204.503906 284.421875 206.6875 280.660156 C 208.824219 276.976562 210.304688 272.914062 212.84375 267.320312 C 207.710938 269.761719 204.371094 271.628906 200.835938 272.972656 C 185.730469 278.730469 171.808594 272.339844 165.894531 257.324219 C 161.953125 247.324219 161.957031 237.339844 164.726562 227.085938 C 167.207031 217.894531 170.503906 209.054688 174.71875 200.527344 C 175.636719 198.664062 176.484375 196.761719 176.792969 194.53125 C 167.703125 202.71875 161.132812 212.722656 155.292969 223.292969 C 149.238281 234.242188 146.585938 245.949219 147.980469 258.890625 C 140.363281 259.496094 136.71875 254.722656 132.132812 249.085938 C 131.210938 258.433594 132.816406 265.402344 139.65625 270.660156 C 133.019531 273.53125 131.535156 273.109375 117.757812 264.632812 C 119.050781 276.03125 122.308594 280.886719 139.871094 297.066406 C 121.871094 291.242188 108.585938 281.445312 99.589844 266.011719 C 94.007812 256.445312 90.585938 246.074219 90.957031 235.109375 C 91.414062 221.671875 96.796875 205.109375 110.617188 195.238281 C 105.46875 209.429688 104.332031 222.671875 111.128906 235.390625 C 112.308594 229.519531 113.371094 223.472656 114.777344 217.5 C 117.4375 206.144531 124.042969 196.8125 130.613281 187.492188 C 133.582031 183.277344 136.769531 179.214844 139.636719 174.941406 C 141.289062 172.472656 142.949219 169.867188 143.855469 167.078125 C 145.628906 161.617188 144.992188 156.3125 141.054688 151.796875 C 139.273438 149.757812 137.320312 147.859375 135.355469 145.804688 C 147.019531 146.160156 156.90625 156.03125 156.105469 166.535156 C 155.945312 168.636719 155.359375 170.839844 154.445312 172.734375 C 151.964844 177.871094 149.058594 182.792969 146.585938 187.929688 C 144.488281 192.289062 142.492188 196.742188 141.015625 201.339844 C 140.367188 203.339844 141.136719 205.792969 141.351562 209.726562 C 145.597656 204.652344 148.855469 201.0625 151.757812 197.207031 C 157.46875 189.621094 163.367188 182.148438 167.171875 173.320312 C 172.675781 160.539062 171.890625 150.738281 161.6875 139.71875 C 155.769531 133.328125 149.257812 127.488281 143.171875 121.246094 C 140.335938 118.335938 137.753906 115.160156 135.296875 111.925781 C 125.351562 98.835938 128.53125 77.175781 144.515625 65.886719 C 146.585938 64.429688 149.300781 63.878906 152.355469 63.84375 C 151.21875 65.15625 150.070312 66.449219 148.949219 67.773438 C 138.210938 80.441406 139.074219 90.601562 149.398438 102.632812 C 153.578125 107.503906 159.0625 111.347656 164.277344 115.21875 C 172.976562 121.683594 182.296875 127.355469 190.714844 134.152344 C 204.382812 145.1875 208.355469 160.175781 206.238281 177.109375 C 204.894531 187.878906 199.96875 197.167969 193.96875 206.007812 C 191.382812 209.8125 188.988281 213.777344 186.867188 217.855469 C 183.386719 224.535156 182.746094 231.738281 183.941406 239.09375 C 185.496094 248.644531 193.214844 254.871094 202.871094 254.507812 C 209.078125 254.273438 211.195312 251.457031 210.472656 245.074219 C 209.992188 240.875 208.65625 237.261719 203.964844 234.101562 C 212.128906 236.003906 213.851562 237.832031 215.777344 245.886719 C 219.460938 241.660156 218.703125 237.292969 217.117188 233.109375 C 216.28125 230.902344 214.5625 228.980469 213.039062 227.109375 C 211.671875 225.421875 209.90625 224.058594 208.515625 222.390625 C 203.773438 216.691406 202.460938 209.941406 205.546875 203.46875 C 210.421875 193.230469 218.828125 186.730469 230.589844 185 Z M 230.589844 185 "/></g><g clip-rule="nonzero" clip-path="url(#43491a8655)"><path style=" stroke:none;fill-rule:nonzero;fill:#ffffff;fill-opacity:1;" d="M 452.765625 211.351562 C 455.714844 217.519531 451.644531 224.75 444.851562 225.480469 C 431.511719 226.914062 418.644531 228.117188 406.007812 230.5 C 388.234375 233.859375 370.71875 238.824219 353.867188 245.539062 C 336 252.648438 318.394531 260.40625 300.703125 267.941406 C 293.628906 270.949219 289.554688 276.265625 288.675781 284 C 288.675781 284.019531 288.667969 284.046875 288.667969 284.066406 C 288.496094 285.566406 286.285156 285.496094 286.164062 284 C 285.800781 279.308594 285.324219 273.941406 284.792969 274.382812 C 276.023438 281.640625 266.171875 287.128906 256 292.128906 C 238.375 300.796875 219.648438 306.105469 200.519531 309.867188 C 186.484375 312.628906 172.285156 314.902344 158.054688 316.199219 C 146.148438 317.28125 134.085938 316.816406 122.09375 316.667969 C 116.152344 316.59375 110.226562 315.648438 104.292969 315.164062 C 102.699219 315.035156 101.089844 315.144531 98.527344 315.144531 C 105.90625 321.425781 114.003906 323.574219 122.234375 324.355469 C 125.957031 324.703125 129.699219 324.773438 133.5625 324.738281 C 136.5 324.710938 136.800781 328.996094 133.890625 329.402344 C 132.554688 329.582031 131.210938 329.683594 129.832031 329.710938 C 123.585938 329.804688 117.335938 329.730469 110.214844 329.730469 C 111.320312 331.101562 111.773438 332.035156 112.511719 332.527344 C 122.367188 339.089844 133.046875 343.402344 144.964844 344.351562 C 149.824219 344.742188 154.648438 345.621094 159.503906 345.761719 C 181.085938 346.386719 202.152344 342.671875 222.820312 336.96875 C 236.097656 333.304688 249.03125 328.421875 262.128906 324.085938 C 262.136719 324.085938 262.148438 324.078125 262.15625 324.078125 C 263.257812 323.714844 263.933594 325.261719 262.925781 325.839844 C 261.515625 326.640625 260.105469 327.433594 258.632812 328.089844 C 240.335938 336.289062 221.878906 344.128906 202.160156 348.253906 C 192.921875 350.183594 183.535156 351.421875 174.171875 352.683594 C 168.550781 353.441406 162.851562 354.011719 157.1875 354.019531 C 142.425781 354.027344 127.863281 351.945312 114.539062 345.445312 C 96.699219 336.75 82.609375 324.292969 74.3125 306.910156 C 71.449219 300.90625 71.820312 293.753906 75.554688 288.253906 C 78.257812 284.269531 81.890625 281.519531 86.890625 279.421875 L 84.566406 283.554688 C 80.917969 290.03125 83.613281 298.324219 90.445312 301.253906 C 90.511719 301.28125 90.578125 301.316406 90.652344 301.339844 C 94.25 302.859375 100.390625 304.40625 104.273438 304.847656 C 121.300781 306.769531 138.28125 307.226562 155.480469 305.5 C 171.410156 303.902344 187.253906 302.046875 202.769531 298.332031 C 225.433594 292.902344 247.769531 286.304688 267.820312 273.832031 C 279.707031 266.441406 282.460938 251.503906 266.246094 247.917969 C 259.796875 246.484375 253.351562 245.027344 245.59375 243.289062 C 259.015625 242.152344 270.488281 244.886719 281.582031 249.386719 C 286 251.183594 288.0625 253.804688 292.277344 260.488281 C 296.921875 261.746094 301.207031 259.519531 305.433594 258.078125 C 329.1875 249.941406 351.152344 236.320312 373.53125 225.113281 C 390.726562 216.503906 407.621094 207.179688 425.976562 201.144531 C 429.773438 199.894531 433.84375 199.425781 437.820312 198.820312 C 440.992188 198.34375 443.921875 199.640625 445.972656 201.808594 C 448.753906 204.738281 451.105469 207.890625 452.765625 211.351562 Z M 452.765625 211.351562 "/></g><g clip-rule="nonzero" clip-path="url(#9a3450e65a)"><g clip-rule="nonzero" clip-path="url(#15da21dfcc)"><g clip-rule="nonzero" clip-path="url(#866f73257e)"><path style=" stroke:none;fill-rule:nonzero;fill:#ffffff;fill-opacity:1;" d="M 229.300781 109.507812 C 228.675781 109.433594 228.050781 109.355469 227.433594 109.269531 C 227.957031 108.34375 228.375 107.609375 228.707031 107.019531 C 248.539062 73.289062 267.367188 59.398438 267.367188 59.398438 C 257.148438 37.921875 220.863281 17.355469 197.109375 19.679688 C 197.109375 19.679688 194.917969 42.980469 176.238281 77.375 C 175.921875 77.929688 175.523438 78.636719 175.035156 79.5 C 174.726562 79.113281 174.421875 78.722656 174.105469 78.320312 C 149.742188 46.757812 151.542969 97.042969 188.222656 117.777344 C 224.675781 138.382812 268.195312 114.035156 229.300781 109.507812 Z M 229.300781 109.507812 "/></g></g></g></g></svg>