<?xml version="1.0" encoding="UTF-8"?>
<svg id="Layer_1" xmlns="http://www.w3.org/2000/svg" version="1.1" xmlns:xlink="http://www.w3.org/1999/xlink" viewBox="0 0 1909.99 579.68">
  <!-- Generator: Adobe Illustrator 29.6.0, SVG Export Plug-In . SVG Version: 2.1.1 Build 207)  -->
  <defs>
    <style>
      .st0 {
        fill-rule: evenodd;
      }

      .st0, .st1 {
        fill: #ff7f0d;
      }

      .st2 {
        clip-path: url(#clippath-6);
      }

      .st3 {
        clip-path: url(#clippath-4);
      }

      .st4 {
        fill: none;
      }

      .st5 {
        clip-path: url(#clippath-1);
      }

      .st6 {
        clip-path: url(#clippath-5);
      }

      .st7 {
        clip-path: url(#clippath-3);
      }

      .st8 {
        fill: #fff;
        stroke: #000;
        stroke-miterlimit: 10;
        stroke-width: .25px;
      }

      .st9 {
        clip-path: url(#clippath-2);
      }

      .st10 {
        clip-path: url(#clippath);
      }
    </style>
    <clipPath id="clippath">
      <rect class="st4" x="226.73" y="62.76" width="176" height="275.53"/>
    </clipPath>
    <clipPath id="clippath-1">
      <rect class="st4" x="205.4" y="220.96" width="268.82" height="183.8"/>
    </clipPath>
    <clipPath id="clippath-2">
      <rect class="st4" x="361.56" y="22.3" width="121" height="91.9"/>
    </clipPath>
    <clipPath id="clippath-3">
      <rect class="st4" x="1366.73" y="51.63" width="118.67" height="117.33"/>
    </clipPath>
    <clipPath id="clippath-4">
      <rect class="st4" x="1370.28" y="31.82" width="117" height="154" transform="translate(952.45 1460.25) rotate(-74.94)"/>
    </clipPath>
    <clipPath id="clippath-5">
      <rect class="st4" x="1370.28" y="31.82" width="117" height="154" transform="translate(952.45 1460.25) rotate(-74.94)"/>
    </clipPath>
    <clipPath id="clippath-6">
      <rect class="st4" x="1370.28" y="31.82" width="117" height="154" transform="translate(952.45 1460.25) rotate(-74.94)"/>
    </clipPath>
  </defs>
  <path class="st8" d="M212.82,66.17v67.83h-118.81v67.4h109.75v67.83h-109.75v136.06H16.73V66.17h196.09Z"/>
  <path d="M201.73,405.3"/>
  <path d="M290.52,405.3"/>
  <path d="M379.31,405.3"/>
  <path class="st8" d="M512.72,380.23c-23.43-20.83-35.15-47.55-35.15-80.17s12.19-59.4,36.58-80.35c24.39-20.97,54.53-31.46,90.44-31.46s65.15,10.56,89.4,31.67c24.25,21.1,36.38,47.81,36.38,80.15s-11.85,58.99-35.56,79.96c-23.7,20.96-53.77,31.44-90.21,31.44s-68.45-10.41-91.88-31.23h0ZM569.03,264.3c-9.46,9.32-14.19,21.24-14.19,35.77s4.52,26.39,13.56,35.56c9.04,9.18,20.96,13.77,35.77,13.77s25.96-4.66,35.15-13.98c9.18-9.32,13.77-21.1,13.77-35.35s-4.73-26.45-14.19-35.77c-9.45-9.32-21.02-13.98-34.73-13.98s-25.69,4.66-35.15,13.98h0Z"/>
  <path class="st8" d="M755.44,379.19c-19.72-21.51-29.58-47.89-29.58-79.13s9.86-57.68,29.58-79.33c19.73-21.65,44.81-32.48,75.23-32.48,27.96,0,50.98,8.77,69.06,26.31V51.77h72.75v353.52h-71.94v-23.83h-.81c-18.08,20-41.1,30-69.06,30-30.42,0-55.49-10.76-75.23-32.27ZM817.31,264.3c-9.46,9.32-14.19,21.24-14.19,35.77s4.52,26.39,13.56,35.56c9.04,9.18,20.96,13.77,35.77,13.77s25.96-4.66,35.15-13.98c9.18-9.32,13.77-21.1,13.77-35.35s-4.73-26.45-14.19-35.77c-9.45-9.32-21.02-13.98-34.73-13.98s-25.69,4.66-35.15,13.98h0Z"/>
  <path class="st1" d="M1127.88,405.3h-49.33l-113.04-210.88h83.88l51.38,113.85,50.56-113.85h50.15l50.56,113.85,51.38-113.85h83.85l-113.04,210.88h-49.31l-48.52-108.94-48.5,108.94h-.02Z"/>
  <path class="st1" d="M1380.28,194.42v210.88h72.75v-210.88h-72.75Z"/>
  <path class="st1" d="M1684.86,194.42l-104.4,155.38h96.19v55.5h-218.27l104.4-155.38h-87.15v-55.5h209.23Z"/>
  <path class="st1" d="M1892.04,194.42l-104.4,155.38h96.19v55.5h-218.27l104.4-155.38h-87.15v-55.5h209.23Z"/>
  <g class="st10">
    <path class="st1" d="M391.44,205.23c-3.3,2.95-6.86,5.66-9.85,8.9-5.38,5.81-6.32,10.76-2.28,17.42,3.77,6.24,8.5,11.93,13.11,17.62,7.16,8.84,10.98,18.64,9.57,30.14-.23,1.88-.46,3.82-1.13,5.57-8.38,22.16-24.29,36.82-47.66,47.14,4.24-5.89,7.57-9.86,10.14-14.29,2.51-4.33,4.25-9.11,7.23-15.68-6.04,2.86-9.96,5.06-14.12,6.65-17.76,6.77-34.13-.74-41.08-18.41-4.64-11.76-4.63-23.49-1.38-35.55,2.92-10.81,6.79-21.21,11.75-31.23,1.08-2.19,2.08-4.43,2.44-7.05-10.69,9.63-18.42,21.39-25.28,33.82-7.12,12.88-10.24,26.65-8.6,41.86-8.96.71-13.24-4.9-18.64-11.53-1.08,10.99.81,19.19,8.85,25.38-7.81,3.37-9.56,2.88-25.76-7.09,1.52,13.4,5.35,19.11,26.01,38.14-21.17-6.85-36.79-18.37-47.37-36.52-6.56-11.25-10.59-23.44-10.15-36.34.54-15.8,6.86-35.28,23.12-46.89-6.05,16.69-7.39,32.26.6,47.22,1.39-6.91,2.64-14.02,4.29-21.04,3.13-13.35,10.9-24.33,18.63-35.29,3.49-4.96,7.23-9.73,10.61-14.76,1.94-2.9,3.9-5.97,4.96-9.24,2.08-6.43,1.33-12.66-3.3-17.97-2.09-2.4-4.39-4.63-6.7-7.05,13.71.42,25.34,12.03,24.4,24.38-.19,2.47-.88,5.06-1.95,7.29-2.92,6.04-6.34,11.83-9.24,17.86-2.47,5.13-4.81,10.37-6.55,15.77-.76,2.35.14,5.24.4,9.86,4.99-5.96,8.82-10.18,12.24-14.72,6.71-8.92,13.65-17.71,18.13-28.09,6.47-15.03,5.55-26.56-6.45-39.52-6.96-7.51-14.62-14.38-21.78-21.72-3.33-3.42-6.37-7.16-9.26-10.96-11.69-15.4-7.96-40.87,10.84-54.14,2.44-1.71,5.63-2.36,9.22-2.4-1.34,1.54-2.69,3.06-4.01,4.62-12.63,14.9-11.61,26.84.53,40.99,4.92,5.72,11.36,10.24,17.49,14.8,10.23,7.6,21.19,14.27,31.09,22.27,16.07,12.97,20.74,30.6,18.25,50.52-1.58,12.67-7.37,23.58-14.43,33.98-3.04,4.47-5.85,9.13-8.35,13.93-4.09,7.85-4.84,16.32-3.43,24.98,1.82,11.22,10.9,18.55,22.26,18.13,7.3-.28,9.79-3.59,8.94-11.09-.56-4.94-2.14-9.19-7.65-12.91,9.6,2.24,11.63,4.39,13.89,13.86,4.33-4.97,3.44-10.1,1.57-15.03-.98-2.59-3-4.85-4.8-7.06-1.6-1.98-3.68-3.59-5.32-5.55-5.58-6.7-7.11-14.64-3.49-22.25,5.73-12.04,15.62-19.68,29.45-21.72h0Z"/>
  </g>
  <g class="st5">
    <path class="st1" d="M652.7,236.22c3.47,7.25-1.32,15.76-9.31,16.61-15.68,1.68-30.82,3.1-45.68,5.9-20.9,3.95-41.5,9.79-61.32,17.68-21.01,8.36-41.71,17.49-62.52,26.34-8.32,3.54-13.1,9.79-14.14,18.89,0,.03-.01.06-.01.08-.2,1.77-2.8,1.68-2.94-.08-.43-5.52-.99-11.83-1.61-11.31-10.31,8.54-21.9,14.99-33.86,20.87-20.72,10.19-42.74,16.43-65.24,20.86-16.51,3.24-33.2,5.92-49.94,7.44-14,1.27-28.18.72-42.29.55-6.98-.09-13.95-1.2-20.93-1.77-1.87-.15-3.77-.02-6.78-.02,8.67,7.39,18.19,9.92,27.88,10.83,4.38.41,8.78.49,13.32.45,3.45-.03,3.81,5.01.39,5.48-1.57.21-3.15.33-4.77.36-7.35.11-14.7.02-23.07.02,1.3,1.61,1.83,2.71,2.7,3.29,11.59,7.72,24.15,12.79,38.16,13.91,5.71.46,11.39,1.49,17.1,1.66,25.38.73,50.15-3.64,74.45-10.34,15.61-4.31,30.82-10.05,46.22-15.15.01,0,.03-.01.03-.01,1.3-.43,2.09,1.39.91,2.07-1.66.94-3.32,1.87-5.05,2.65-21.52,9.64-43.22,18.86-66.41,23.71-10.86,2.27-21.9,3.72-32.91,5.2-6.61.9-13.32,1.57-19.97,1.57-17.36.01-34.48-2.44-50.15-10.08-20.98-10.22-37.55-24.88-47.31-45.32-3.36-7.06-2.93-15.47,1.46-21.94,3.18-4.68,7.45-7.92,13.33-10.38l-2.73,4.86c-4.29,7.61-1.12,17.36,6.92,20.81.08.03.16.07.24.1,4.22,1.78,11.45,3.6,16.02,4.13,20.02,2.26,39.99,2.8,60.21.77,18.73-1.88,37.36-4.06,55.61-8.43,26.65-6.39,52.92-14.15,76.49-28.81,13.98-8.69,17.22-26.26-1.85-30.48-7.58-1.68-15.16-3.4-24.29-5.44,15.79-1.33,29.27,1.88,42.32,7.18,5.2,2.11,7.63,5.19,12.58,13.05,5.46,1.48,10.5-1.14,15.47-2.84,27.93-9.57,53.77-25.58,80.08-38.76,20.22-10.13,40.08-21.09,61.67-28.19,4.47-1.47,9.26-2.02,13.93-2.73,3.73-.56,7.18.96,9.58,3.52,3.27,3.45,6.04,7.15,7.99,11.22l.02.02Z"/>
  </g>
  <g class="st9">
    <path class="st0" d="M361.56,72.33h4.05l-4.05-.12c39.83-1.68,40.13-1.98,41.81-41.82l.12,1.85v-1.85c.08,1.96.16,3.83.25,5.6l.86,13.22c1.6,15.86,5.57,20.1,21,21.81l14.58.97c1.63.07,3.34.14,5.13.22h-1.8l1.8.12c-39.84,1.69-40.13,1.98-41.82,41.81l-.12-1.82v1.82c-.08-1.86-.15-3.64-.23-5.33l-.92-13.93c-2.19-20.73-8.69-21.2-40.67-22.55h.01ZM428.18,49.17h2.6l-2.6-.08c25.52-1.08,25.71-1.27,26.79-26.79l.07,1.19v-1.19c.06,1.26.11,2.45.16,3.58l.55,8.47c1.03,10.16,3.57,12.88,13.45,13.97l9.34.63c1.05.05,2.14.09,3.28.14h-1.15l1.15.08c-25.52,1.08-25.71,1.27-26.79,26.79l-.07-1.17v1.17c-.06-1.2-.1-2.33-.15-3.42l-.59-8.93c-1.4-13.28-5.56-13.58-26.05-14.44h0ZM427.33,96.22h1.74l-1.74-.05c17.08-.72,17.2-.85,17.93-17.93l.05.8v-.8c.04.84.07,1.64.1,2.4l.36,5.67c.69,6.8,2.4,8.61,9.01,9.34l6.26.42c.7.03,1.43.06,2.19.09h-.77l.77.05c-17.07.72-17.2.85-17.92,17.93l-.05-.78v.78c-.04-.8-.07-1.56-.1-2.28l-.4-5.97c-.94-8.89-3.72-9.09-17.43-9.67Z"/>
  </g>
  <g class="st7">
    <g class="st3">
      <g class="st6">
        <g class="st2">
          <path class="st8" d="M1458.57,144.78c-.7.09-1.41.19-2.1.27.31-1.16.56-2.08.76-2.82,12.22-42.51,28.93-63.02,28.93-63.02-17.23-20.64-62.75-32.94-88.11-23.71,0,0,4.16,26.13-6.61,69.04-.19.7-.42,1.58-.71,2.66-.45-.33-.9-.68-1.35-1.03-35.56-27.7-19.43,26.85,26.56,39.22,45.71,12.3,86.51-26.6,42.65-20.61h-.02Z"/>
        </g>
      </g>
    </g>
  </g>
  <path class="st8" d="M498.36,480.29v57.27h-.23l-39.88-38.67.23,36.69h-8.96v-57.19h.44l39.73,39.1-.15-37.21h8.82Z"/>
  <path class="st8" d="M580.7,480.29v8.5h-27.81v14.73h24.77v8.52h-24.77v15.04h28.88v8.5h-37.75v-55.29h36.69-.01Z"/>
  <path class="st8" d="M669.1,480.29l-24.77,57.88-24.75-57.88h10.56l14.58,36.31,13.98-36.31h10.4Z"/>
  <path class="st8" d="M746.59,480.29v8.5h-27.81v14.73h24.77v8.52h-24.77v15.04h28.88v8.5h-37.75v-55.29h36.69-.01Z"/>
  <path class="st8" d="M820.49,535.58l-12.46-19.21h-8.9v19.21h-8.88v-55.29h15.56c6.18,0,11.13,1.57,14.85,4.71,3.72,3.14,5.58,7.49,5.58,13.06,0,3.39-.72,6.54-2.17,9.46-1.45,2.91-3.71,5.14-6.79,6.71l13.44,21.35h-10.25.02ZM799.13,507.85h7.9c3.55,0,6.13-.97,7.71-2.92,1.59-1.96,2.4-4.15,2.4-6.58,0-1.42-.31-2.84-.92-4.27-.6-1.44-1.64-2.69-3.1-3.73-1.47-1.04-3.4-1.56-5.77-1.56h-8.21v19.06h-.01Z"/>
  <path class="st8" d="M863.93,535.58"/>
  <path class="st8" d="M956.45,535.58l-12.46-19.21h-8.9v19.21h-8.88v-55.29h15.56c6.18,0,11.13,1.57,14.85,4.71,3.72,3.14,5.58,7.49,5.58,13.06,0,3.39-.72,6.54-2.17,9.46-1.45,2.91-3.71,5.14-6.79,6.71l13.44,21.35h-10.25.02ZM935.09,507.85h7.9c3.55,0,6.13-.97,7.71-2.92,1.59-1.96,2.4-4.15,2.4-6.58,0-1.42-.31-2.84-.92-4.27-.6-1.44-1.64-2.69-3.1-3.73-1.47-1.04-3.4-1.56-5.77-1.56h-8.21v19.06h-.01Z"/>
  <path class="st8" d="M1015.45,515.68c0,2.13.55,4.1,1.67,5.92,1.13,1.82,2.65,3.28,4.56,4.38,1.93,1.08,4.03,1.63,6.31,1.63s4.53-.53,6.48-1.58c1.96-1.07,3.49-2.51,4.6-4.33,1.13-1.82,1.69-3.82,1.69-6v-35.4h8.73v35.63c0,3.95-.95,7.45-2.85,10.52-1.91,3.06-4.5,5.45-7.79,7.17s-6.91,2.58-10.85,2.58-7.56-.86-10.83-2.58c-3.27-1.72-5.83-4.11-7.71-7.17-1.88-3.07-2.81-6.57-2.81-10.52v-35.63h8.81v35.4-.02Z"/>
  <path class="st8" d="M1142.99,480.29v57.27h-.23l-39.88-38.67.23,36.69h-8.96v-57.19h.44l39.73,39.1-.15-37.21h8.82Z"/>
  <path class="st8" d="M1181.04,535.58"/>
  <path class="st8" d="M1239.91,508.01c0-5.07,1.26-9.77,3.79-14.1,2.53-4.33,5.96-7.78,10.29-10.35,4.33-2.58,9.05-3.88,14.17-3.88s9.75,1.29,14.08,3.88c4.33,2.57,7.79,6.04,10.38,10.4,2.58,4.36,3.88,9.05,3.88,14.06s-1.28,9.82-3.83,14.13c-2.56,4.31-6.02,7.72-10.38,10.25s-9.07,3.79-14.13,3.79-9.83-1.25-14.17-3.75c-4.33-2.51-7.77-5.92-10.29-10.23-2.53-4.3-3.79-9.03-3.79-14.19h0ZM1249.02,508.01c0,3.58.86,6.88,2.58,9.88,1.72,2.99,4.06,5.37,7.02,7.15,2.97,1.77,6.23,2.65,9.77,2.65s6.67-.88,9.56-2.63,5.18-4.13,6.88-7.15c1.69-3.01,2.54-6.31,2.54-9.9s-.86-6.92-2.58-9.96c-1.72-3.04-4.06-5.44-7-7.21-2.93-1.78-6.14-2.67-9.63-2.67s-6.77.89-9.69,2.67c-2.92,1.77-5.22,4.17-6.92,7.21-1.7,3.04-2.54,6.36-2.54,9.96h0Z"/>
  <path class="st8" d="M1346.61,515.68c0,2.13.55,4.1,1.67,5.92,1.13,1.82,2.65,3.28,4.56,4.38,1.93,1.08,4.03,1.63,6.31,1.63s4.53-.53,6.48-1.58c1.96-1.07,3.49-2.51,4.6-4.33,1.13-1.82,1.69-3.82,1.69-6v-35.4h8.73v35.63c0,3.95-.95,7.45-2.85,10.52-1.91,3.06-4.5,5.45-7.79,7.17s-6.91,2.58-10.85,2.58-7.56-.86-10.83-2.58c-3.27-1.72-5.83-4.11-7.71-7.17-1.88-3.07-2.81-6.57-2.81-10.52v-35.63h8.81v35.4-.02Z"/>
  <path class="st8" d="M1458.36,480.29v8.5h-14.29v46.79h-8.81v-46.79h-13.9v-8.5h37Z"/>
</svg>